<?xml version="1.0" encoding="UTF-8" standalone="no"?>
<!-- Created with Inkscape (http://www.inkscape.org/) -->

<svg
   width="262.49515mm"
   height="184mm"
   viewBox="0 0 262.49515 183.99999"
   version="1.1"
   id="svg84"
   inkscape:version="1.1 (c4e8f9ed74, 2021-05-24)"
   sodipodi:docname="ti842py-logo.svg"
   xmlns:inkscape="http://www.inkscape.org/namespaces/inkscape"
   xmlns:sodipodi="http://sodipodi.sourceforge.net/DTD/sodipodi-0.dtd"
   xmlns:xlink="http://www.w3.org/1999/xlink"
   xmlns="http://www.w3.org/2000/svg"
   xmlns:svg="http://www.w3.org/2000/svg">
  <sodipodi:namedview
     id="namedview86"
     pagecolor="#505050"
     bordercolor="#eeeeee"
     borderopacity="1"
     inkscape:pageshadow="0"
     inkscape:pageopacity="0"
     inkscape:pagecheckerboard="0"
     inkscape:document-units="mm"
     showgrid="false"
     width="300mm"
     inkscape:zoom="0.56441565"
     inkscape:cx="369.40861"
     inkscape:cy="325.11501"
     inkscape:window-width="1920"
     inkscape:window-height="1051"
     inkscape:window-x="1920"
     inkscape:window-y="0"
     inkscape:window-maximized="1"
     inkscape:current-layer="layer1"
     height="224mm"
     scale-x="1"
     fit-margin-top="0"
     fit-margin-left="0"
     fit-margin-right="0"
     fit-margin-bottom="0" />
  <defs
     id="defs81">
    <linearGradient
       id="linearGradient11301"
       inkscape:collect="always">
      <stop
         id="stop11303"
         offset="0"
         style="stop-color:#ffe052;stop-opacity:1" />
      <stop
         id="stop11305"
         offset="1"
         style="stop-color:#ffc331;stop-opacity:1" />
    </linearGradient>
    <linearGradient
       gradientUnits="userSpaceOnUse"
       y2="168.1012"
       x2="147.77737"
       y1="111.92053"
       x1="89.136749"
       id="linearGradient11307"
       xlink:href="#linearGradient11301"
       inkscape:collect="always" />
    <linearGradient
       id="linearGradient9515"
       inkscape:collect="always">
      <stop
         id="stop9517"
         offset="0"
         style="stop-color:#387eb8;stop-opacity:1" />
      <stop
         id="stop9519"
         offset="1"
         style="stop-color:#366994;stop-opacity:1" />
    </linearGradient>
    <linearGradient
       gradientUnits="userSpaceOnUse"
       y2="131.85291"
       x2="110.14919"
       y1="77.070274"
       x1="55.549179"
       id="linearGradient9521"
       xlink:href="#linearGradient9515"
       inkscape:collect="always" />
  </defs>
  <g
     inkscape:label="Layer 1"
     inkscape:groupmode="layer"
     id="layer1"
     transform="translate(0.26586846,-5.4120521)">
    <path
       d="m 78.553573,34.066695 v 6.723792 H 62.443364 V 93.524262 H 54.672558 V 40.790487 H 38.562349 v -6.723792 z"
       id="path28000"
       style="font-size:153.942px;line-height:1.25;font-family:'Ubuntu Mono';-inkscape-font-specification:'Ubuntu Mono';stroke:#fefefe;stroke-width:0.619765;stroke-miterlimit:4;stroke-dasharray:none" />
    <path
       d="m 172.18195,78.059532 q 0,7.492227 -4.73829,12.10283 -4.64355,4.610602 -14.21491,4.610602 -5.49647,0 -9.09761,-1.44081 -3.60113,-1.536869 -5.78062,-3.842174 -2.08478,-2.401355 -3.03251,-5.282981 -0.85302,-2.881629 -0.85302,-5.667204 0,-5.090866 2.74836,-9.02909 2.74819,-3.938217 6.53883,-6.339579 -8.05507,-4.610601 -8.05507,-14.119973 0,-3.265838 1.23187,-6.243528 1.23202,-2.977679 3.50643,-5.186929 2.27434,-2.209244 5.49648,-3.554001 3.31675,-1.344761 7.39164,-1.344761 4.73831,0 8.05517,1.440814 3.41153,1.440813 5.4964,3.746117 2.08478,2.209247 3.03244,4.994829 0.9477,2.689513 0.9477,5.28297 0,5.090874 -2.55869,8.83699 -2.55872,3.650065 -5.87546,5.859312 9.76086,4.706653 9.76086,15.176566 z m -30.13553,0.576324 q 0,1.536856 0.56852,3.265842 0.56865,1.632929 1.8954,3.073741 1.3267,1.440808 3.50631,2.401349 2.17961,0.864491 5.30688,0.864491 2.93772,0 5.02248,-0.768429 2.17972,-0.864491 3.50644,-2.209242 1.4216,-1.440826 2.08486,-3.169799 0.66338,-1.728978 0.66338,-3.457953 0,-5.475087 -3.88542,-8.356724 -3.88538,-2.977676 -10.70846,-4.514548 -3.79073,2.113198 -5.87567,5.282982 -2.08472,3.169796 -2.08472,7.58829 z m 21.22763,-30.449192 q 0,-1.248705 -0.56869,-2.785574 -0.56861,-1.632913 -1.8006,-2.881625 -1.13717,-1.344764 -3.03253,-2.209258 -1.89524,-0.960534 -4.5487,-0.960534 -2.74821,0 -4.64353,0.864491 -1.80056,0.864488 -3.03248,2.209251 -1.23199,1.2487 -1.80059,2.881624 -0.47376,1.536865 -0.47376,3.073736 0,3.938227 2.74815,7.396172 2.84299,3.361897 9.28702,4.898772 3.60114,-2.113194 5.686,-4.994827 2.17971,-2.881622 2.17971,-7.492228 z"
       id="path28002"
       style="font-size:153.942px;line-height:1.25;font-family:'Ubuntu Mono';-inkscape-font-specification:'Ubuntu Mono';stroke:#fefefe;stroke-width:0.619765;stroke-miterlimit:4;stroke-dasharray:none" />
    <path
       d="m 180.42643,72.968657 q 1.61101,-3.84217 4.35922,-8.836992 2.84302,-4.994821 6.34931,-10.277803 3.50636,-5.379041 7.48652,-10.469908 3.9802,-5.186937 8.05508,-9.317259 h 7.5813 v 37.749311 h 6.91801 v 6.53169 h -6.91801 v 15.176566 h -7.5813 V 78.347696 h -26.25013 z m 26.25013,-29.488648 q -2.5587,2.78557 -5.21211,6.147468 -2.55868,3.361897 -5.02261,7.108017 -2.46394,3.650056 -4.6435,7.492228 -2.08486,3.842169 -3.79068,7.588284 h 18.6689 z"
       id="path28004"
       style="font-size:153.942px;line-height:1.25;font-family:'Ubuntu Mono';-inkscape-font-specification:'Ubuntu Mono';stroke:#fefefe;stroke-width:0.619765;stroke-miterlimit:4;stroke-dasharray:none" />
    <path
       d="m 74.668165,117.82116 q 0,3.07375 -1.231954,5.95545 -1.137192,2.88153 -3.127275,5.66697 -1.895324,2.78573 -4.359237,5.47525 -2.463909,2.68956 -5.022577,5.28283 -1.421501,1.44095 -3.31682,3.45795 -1.89532,2.0173 -3.601108,4.13045 -1.705788,2.1132 -2.84298,4.13032 -1.137188,2.0172 -1.137188,3.45795 h 27.008293 v 6.72384 H 41.500093 q -0.09477,-0.4803 -0.09477,-0.96055 0,-0.57633 0,-1.05663 0,-4.03426 1.326724,-7.49221 1.326723,-3.45793 3.411575,-6.53168 2.08485,-3.07377 4.643526,-5.76328 2.653449,-2.7856 5.212128,-5.37899 2.084852,-2.11322 3.980172,-4.13038 1.990085,-2.01714 3.411575,-4.03428 1.516249,-2.01715 2.369146,-4.13028 0.947662,-2.20926 0.947662,-4.51459 0,-2.59348 -0.852895,-4.41848 -0.758121,-1.82503 -2.179609,-2.97764 -1.326722,-1.24877 -3.127283,-1.8251 -1.800553,-0.57631 -3.885402,-0.57631 -2.463918,0 -4.548766,0.67242 -1.990088,0.67233 -3.601109,1.63286 -1.516254,0.96054 -2.653442,1.9211 -1.137193,0.86459 -1.705789,1.44082 l -3.885403,-5.57115 q 0.758127,-0.86448 2.274382,-2.1132 1.516255,-1.24867 3.601107,-2.30534 2.179619,-1.15258 4.833063,-1.92104 2.653434,-0.76841 5.685957,-0.76841 9.192294,0 13.551527,4.32239 4.453993,4.22641 4.453993,12.19894 z"
       id="path28006"
       style="font-size:153.942px;line-height:1.25;font-family:'Ubuntu Mono';-inkscape-font-specification:'Ubuntu Mono';stroke:#fefefe;stroke-width:0.619765;stroke-miterlimit:4;stroke-dasharray:none" />
    <path
       d="m 151.90206,102.06824 q 5.21213,0 9.09749,1.34477 3.98018,1.34481 6.53886,3.8422 2.65347,2.40131 3.88542,5.76332 1.32675,3.36177 1.32675,7.49211 0,9.31722 -5.40162,14.40819 -5.40181,4.99479 -16.20509,4.99479 h -6.82311 v 22.18855 h -7.77073 v -58.5931 q 1.70571,-0.38419 3.6958,-0.67237 2.08492,-0.28814 4.07493,-0.48028 2.08491,-0.19215 3.98017,-0.19215 1.9901,-0.096 3.60113,-0.096 z m 0.56864,6.81984 q -2.46389,0 -4.73842,0.0961 -2.27433,0 -3.41152,0.19203 v 24.01361 h 6.44407 q 7.1074,0 10.51901,-2.88159 3.50639,-2.88168 3.50639,-9.50949 0,-11.91067 -12.31953,-11.91067 z"
       id="path28008"
       style="font-size:153.942px;line-height:1.25;font-family:'Ubuntu Mono';-inkscape-font-specification:'Ubuntu Mono';stroke:#fefefe;stroke-width:0.619765;stroke-miterlimit:4;stroke-dasharray:none" />
    <path
       d="M 196.91571,162.10217 V 140.0097 q -5.78075,-9.60545 -10.51903,-18.7306 -4.64367,-9.12518 -8.14991,-18.63455 h 8.71852 q 2.74819,8.06863 6.25448,15.46475 3.60113,7.30012 7.67623,15.08053 4.35907,-8.16462 7.67597,-15.46476 3.41151,-7.39616 6.15967,-15.08052 h 8.52897 q -3.60109,9.41335 -8.24463,18.34633 -4.64353,8.9331 -10.3295,18.8266 v 22.28469 z"
       id="path28010"
       style="font-size:153.942px;line-height:1.25;font-family:'Ubuntu Mono';-inkscape-font-specification:'Ubuntu Mono';stroke:#fefefe;stroke-width:0.619765;stroke-miterlimit:4;stroke-dasharray:none" />
    <g
       style="fill:none;stroke:none;stroke-linecap:square;stroke-miterlimit:10"
       id="g9499"
       transform="matrix(0.09736467,0,0,0.09736467,89.437896,33.04191)">
      <g
         clip-path="url(#p.0)"
         id="g284">
        <path
           fill="#000000"
           fill-opacity="0"
           d="M 0,0 H 355.11336 V 631.7192 H 0 Z"
           fill-rule="nonzero"
           id="path218"
           style="stroke-width:0.941284" />
        <path
           fill="#434343"
           d="m 14.539035,37.151123 v 0 c 0,-13.923937 10.000978,-25.211517 22.337811,-25.211517 H 317.92024 c 5.92434,0 11.60606,2.656205 15.79522,7.384282 4.18914,4.728077 6.54259,11.140726 6.54259,17.827236 V 590.57062 c 0,13.92389 -10.00099,25.21149 -22.33781,25.21149 H 36.876846 c -12.336831,0 -22.337811,-11.2876 -22.337811,-25.21149 z"
           fill-rule="nonzero"
           id="path220"
           style="stroke-width:0.941284" />
        <path
           fill="#000000"
           d="m 213.13644,258.34319 h 38.45195 v 21.83855 h -38.45195 z"
           fill-rule="nonzero"
           id="path244-7-5-1"
           style="fill:#808080;stroke-width:0.723164" />
        <path
           fill="#000000"
           d="m 270.3285,258.34319 h 38.45195 v 21.83855 H 270.3285 Z"
           fill-rule="nonzero"
           id="path244-7-5-1-2"
           style="fill:#808080;stroke-width:0.723164" />
        <path
           fill="#000000"
           d="m 155.94437,258.34319 h 38.45195 v 21.83855 h -38.45195 z"
           fill-rule="nonzero"
           id="path244-7-5-9"
           style="fill:#808080;stroke-width:0.723164" />
        <path
           stroke="#000000"
           stroke-width="3.76514"
           stroke-linejoin="round"
           stroke-linecap="butt"
           d="m 14.539035,37.151123 v 0 c 0,-13.923937 10.000978,-25.211517 22.337811,-25.211517 H 317.92024 c 5.92434,0 11.60606,2.656205 15.79522,7.384282 4.18914,4.728077 6.54259,11.140726 6.54259,17.827236 V 590.57062 c 0,13.92389 -10.00099,25.21149 -22.33781,25.21149 H 36.876846 c -12.336831,0 -22.337811,-11.2876 -22.337811,-25.21149 z"
           fill-rule="nonzero"
           id="path222" />
        <path
           fill="#cccccc"
           d="M 34.619316,39.19832 H 317.47969 V 239.35328 H 34.619316 Z"
           fill-rule="nonzero"
           id="path224"
           style="stroke-width:0.835476" />
        <path
           stroke="#000000"
           stroke-width="3.3419"
           stroke-linejoin="round"
           stroke-linecap="butt"
           d="M 34.619316,39.19832 H 317.47969 V 239.35328 H 34.619316 Z"
           fill-rule="nonzero"
           id="path226" />
        <path
           fill="#000000"
           d="m 41.56025,367.08536 h 38.451948 v 36.99921 H 41.56025 Z"
           fill-rule="nonzero"
           id="path228"
           style="stroke-width:0.941284" />
        <path
           fill="#000000"
           d="m 98.752316,367.08536 h 38.451944 v 36.99921 H 98.752316 Z"
           fill-rule="nonzero"
           id="path230"
           style="stroke-width:0.941284" />
        <path
           fill="#000000"
           d="m 155.94438,367.08536 h 38.45194 v 36.99921 h -38.45194 z"
           fill-rule="nonzero"
           id="path232"
           style="stroke-width:0.941284" />
        <path
           fill="#000000"
           d="m 213.13644,367.08536 h 38.45196 v 36.99921 h -38.45196 z"
           fill-rule="nonzero"
           id="path234"
           style="stroke-width:0.941284" />
        <path
           fill="#000000"
           d="m 270.3285,367.08536 h 38.45195 v 36.99921 H 270.3285 Z"
           fill-rule="nonzero"
           id="path236"
           style="stroke-width:0.941284" />
        <path
           fill="#f1c232"
           d="m 270.3285,551.66865 h 38.45195 v 36.99918 H 270.3285 Z"
           fill-rule="nonzero"
           id="path238"
           style="stroke-width:0.941284" />
        <path
           fill="#000000"
           d="m 155.94438,311.5441 h 38.45194 v 36.99918 h -38.45194 z"
           fill-rule="nonzero"
           id="path240"
           style="stroke-width:0.941284" />
        <path
           fill="#000000"
           d="M 40.721571,428.6111 H 79.17352 v 36.99918 H 40.721571 Z"
           fill-rule="nonzero"
           id="path242"
           style="stroke-width:0.941284" />
        <path
           fill="#000000"
           d="m 97.913631,428.6111 h 38.451949 v 36.99918 H 97.913631 Z"
           fill-rule="nonzero"
           id="path244"
           style="fill:#808080;stroke-width:0.941284" />
        <path
           fill="#000000"
           d="m 41.560251,258.34319 h 38.451946 v 21.83855 H 41.560251 Z"
           fill-rule="nonzero"
           id="path244-7"
           style="fill:#808080;stroke-width:0.723164" />
        <path
           fill="#000000"
           d="m 98.752315,258.34319 h 38.451945 v 21.83855 H 98.752315 Z"
           fill-rule="nonzero"
           id="path244-7-5"
           style="fill:#808080;stroke-width:0.723164" />
        <path
           fill="#000000"
           d="m 155.10571,428.6111 h 38.45194 v 36.99918 h -38.45194 z"
           fill-rule="nonzero"
           id="path246"
           style="fill:#808080;stroke-width:0.941284" />
        <path
           fill="#000000"
           d="m 212.29776,428.6111 h 38.45194 v 36.99918 h -38.45194 z"
           fill-rule="nonzero"
           id="path248"
           style="fill:#808080;stroke-width:0.941284" />
        <path
           fill="#000000"
           d="m 269.48984,428.6111 h 38.45195 v 36.99918 h -38.45195 z"
           fill-rule="nonzero"
           id="path250"
           style="stroke-width:0.941284" />
        <path
           fill="#000000"
           d="m 41.56025,493.26868 h 38.451948 v 36.99921 H 41.56025 Z"
           fill-rule="nonzero"
           id="path252"
           style="stroke-width:0.941284" />
        <path
           fill="#000000"
           d="m 98.752316,493.26868 h 38.451944 v 36.99921 H 98.752316 Z"
           fill-rule="nonzero"
           id="path254"
           style="fill:#808080;stroke-width:0.941284" />
        <path
           fill="#000000"
           d="m 155.94438,493.26868 h 38.45194 v 36.99921 h -38.45194 z"
           fill-rule="nonzero"
           id="path256"
           style="fill:#808080;stroke-width:0.941284" />
        <path
           fill="#000000"
           d="m 155.94438,551.66864 h 38.45194 v 36.99921 h -38.45194 z"
           fill-rule="nonzero"
           id="path256-3"
           style="fill:#808080;stroke-width:0.941284" />
        <path
           fill="#000000"
           d="m 98.752316,551.66864 h 38.451944 v 36.99921 H 98.752316 Z"
           fill-rule="nonzero"
           id="path256-6"
           style="fill:#808080;stroke-width:0.941284" />
        <path
           fill="#000000"
           d="m 213.13644,493.26868 h 38.45196 v 36.99921 h -38.45196 z"
           fill-rule="nonzero"
           id="path258"
           style="fill:#808080;stroke-width:0.941284" />
        <path
           fill="#000000"
           d="m 270.3285,493.26868 h 38.45195 v 36.99921 H 270.3285 Z"
           fill-rule="nonzero"
           id="path260"
           style="stroke-width:0.941284" />
        <path
           fill="#6aa84f"
           d="m 98.752316,312.78164 h 38.451944 v 36.99921 H 98.752316 Z"
           fill-rule="nonzero"
           id="path262"
           style="stroke-width:0.941284" />
        <path
           fill="#3d85c6"
           d="m 41.56025,312.78164 h 38.451948 v 36.9992 H 41.56025 Z"
           fill-rule="nonzero"
           id="path264"
           style="stroke-width:0.941284" />
        <path
           fill="#000000"
           d="m 41.560247,551.66864 h 38.451955 v 36.99921 H 41.560247 Z"
           fill-rule="nonzero"
           id="path266"
           style="stroke-width:0.941284" />
        <path
           fill="#000000"
           d="m 212.30355,551.66864 h 38.45194 v 36.99921 h -38.45194 z"
           fill-rule="nonzero"
           id="path268"
           style="fill:#808080;stroke-width:0.941284" />
        <path
           fill="#000000"
           d="M 213.13644,311.54409 H 251.5884 V 348.5433 H 213.13644 Z"
           fill-rule="nonzero"
           id="path270"
           style="stroke-width:0.941284" />
        <path
           fill="#000000"
           fill-opacity="0"
           d="M 34.666462,248.34319 H 317.43405"
           fill-rule="nonzero"
           id="path272"
           style="stroke-width:0.941284" />
        <path
           fill="#000000"
           fill-opacity="0"
           d="m 101.71263,38.66665 0.8329,253.89606"
           fill-rule="nonzero"
           id="path276"
           style="stroke-width:0.941284" />
        <path
           fill="#000000"
           fill-opacity="0"
           d="m 34.468722,153.26633 c 2.380546,6.4724 7.36946,26.28407 14.28328,38.83443 6.913818,12.55035 16.399324,27.48398 27.199632,36.46769 10.8003,8.98372 21.666253,15.18766 37.602206,17.4346 15.93596,2.24697 38.4633,1.85871 58.01352,-3.95283 19.55021,-5.81152 44.5894,-19.42134 59.28778,-30.91637 14.69838,-11.49502 21.91919,-21.93472 28.90251,-38.05378 6.9833,-16.11905 10.43154,-41.48412 12.99743,-58.66057 2.56588,-17.176458 1.99827,-31.845731 2.39791,-44.398145 0.39966,-12.552425 0,-25.763649 0,-30.916378"
           fill-rule="nonzero"
           id="path280"
           style="stroke-width:0.941284" />
      </g>
    </g>
    <g
       id="g1894"
       transform="matrix(0.53215222,0,0,0.53215222,53.431614,66.570044)">
      <path
         style="color:#000000;display:inline;overflow:visible;visibility:visible;opacity:1;fill:url(#linearGradient9521);fill-opacity:1;fill-rule:nonzero;stroke:none;stroke-width:1;stroke-linecap:butt;stroke-linejoin:miter;stroke-miterlimit:4;stroke-dasharray:none;stroke-dashoffset:0;stroke-opacity:1;marker:none;marker-start:none;marker-mid:none;marker-end:none"
         d="M 99.75,67.46875 C 71.718268,67.468752 73.46875,79.625 73.46875,79.625 L 73.5,92.21875 h 26.75 V 96 H 62.875 c 0,0 -17.9375,-2.034276 -17.9375,26.25 -2e-6,28.28427 15.65625,27.28125 15.65625,27.28125 h 9.34375 v -13.125 c 0,0 -0.503652,-15.65625 15.40625,-15.65625 15.9099,0 26.53125,0 26.53125,0 0,0 14.90625,0.24096 14.90625,-14.40625 0,-14.647206 0,-24.21875 0,-24.21875 0,-2e-6 2.26318,-14.65625 -27.03125,-14.65625 z M 85,75.9375 c 2.661429,-2e-6 4.8125,2.151071 4.8125,4.8125 2e-6,2.661429 -2.151071,4.8125 -4.8125,4.8125 -2.661429,2e-6 -4.8125,-2.151071 -4.8125,-4.8125 -2e-6,-2.661429 2.151071,-4.8125 4.8125,-4.8125 z"
         id="path8615" />
      <path
         id="path8620"
         d="m 100.5461,177.31485 c 28.03174,0 26.28125,-12.15625 26.28125,-12.15625 l -0.0312,-12.59375 h -26.75 v -3.78125 h 37.375 c 0,0 17.9375,2.03427 17.9375,-26.25001 10e-6,-28.284267 -15.65625,-27.281247 -15.65625,-27.281247 h -9.34375 v 13.124997 c 0,0 0.50366,15.65625 -15.40625,15.65625 -15.909902,0 -26.531252,0 -26.531252,0 0,0 -14.90625,-0.24096 -14.90625,14.40626 0,14.6472 0,24.21875 0,24.21875 0,0 -2.26318,14.65625 27.031252,14.65625 z m 14.75,-8.46875 c -2.66143,0 -4.8125,-2.15107 -4.8125,-4.8125 0,-2.66143 2.15107,-4.8125 4.8125,-4.8125 2.66143,0 4.8125,2.15107 4.8125,4.8125 1e-5,2.66143 -2.15107,4.8125 -4.8125,4.8125 z"
         style="color:#000000;display:inline;overflow:visible;visibility:visible;opacity:1;fill:url(#linearGradient11307);fill-opacity:1;fill-rule:nonzero;stroke:none;stroke-width:1;stroke-linecap:butt;stroke-linejoin:miter;stroke-miterlimit:4;stroke-dasharray:none;stroke-dashoffset:0;stroke-opacity:1;marker:none;marker-start:none;marker-mid:none;marker-end:none" />
    </g>
  </g>
</svg>
