<?xml version="1.0" encoding="UTF-8" standalone="no"?>
<!-- Created with Inkscape (http://www.inkscape.org/) -->

<svg
   width="262.49515mm"
   height="184mm"
   viewBox="0 0 262.49515 183.99999"
   version="1.1"
   id="svg84"
   inkscape:version="1.1 (c4e8f9ed74, 2021-05-24)"
   sodipodi:docname="ti842py-logo.svg"
   xmlns:inkscape="http://www.inkscape.org/namespaces/inkscape"
   xmlns:sodipodi="http://sodipodi.sourceforge.net/DTD/sodipodi-0.dtd"
   xmlns:xlink="http://www.w3.org/1999/xlink"
   xmlns="http://www.w3.org/2000/svg"
   xmlns:svg="http://www.w3.org/2000/svg">
  <sodipodi:namedview
     id="namedview86"
     pagecolor="#505050"
     bordercolor="#eeeeee"
     borderopacity="1"
     inkscape:pageshadow="0"
     inkscape:pageopacity="0"
     inkscape:pagecheckerboard="0"
     inkscape:document-units="mm"
     showgrid="false"
     width="300mm"
     inkscape:zoom="0.56441565"
     inkscape:cx="300.3106"
     inkscape:cy="401.3"
     inkscape:window-width="1920"
     inkscape:window-height="1051"
     inkscape:window-x="0"
     inkscape:window-y="0"
     inkscape:window-maximized="1"
     inkscape:current-layer="layer1"
     height="224mm"
     scale-x="1"
     fit-margin-top="0"
     fit-margin-left="0"
     fit-margin-right="0"
     fit-margin-bottom="0" />
  <defs
     id="defs81">
    <linearGradient
       id="linearGradient11301"
       inkscape:collect="always">
      <stop
         id="stop11303"
         offset="0"
         style="stop-color:#ffe052;stop-opacity:1" />
      <stop
         id="stop11305"
         offset="1"
         style="stop-color:#ffc331;stop-opacity:1" />
    </linearGradient>
    <linearGradient
       gradientUnits="userSpaceOnUse"
       y2="168.1012"
       x2="147.77737"
       y1="111.92053"
       x1="89.136749"
       id="linearGradient11307"
       xlink:href="#linearGradient11301"
       inkscape:collect="always" />
    <linearGradient
       id="linearGradient9515"
       inkscape:collect="always">
      <stop
         id="stop9517"
         offset="0"
         style="stop-color:#387eb8;stop-opacity:1" />
      <stop
         id="stop9519"
         offset="1"
         style="stop-color:#366994;stop-opacity:1" />
    </linearGradient>
    <linearGradient
       gradientUnits="userSpaceOnUse"
       y2="131.85291"
       x2="110.14919"
       y1="77.070274"
       x1="55.549179"
       id="linearGradient9521"
       xlink:href="#linearGradient9515"
       inkscape:collect="always" />
  </defs>
  <g
     inkscape:label="Layer 1"
     inkscape:groupmode="layer"
     id="layer1"
     transform="translate(0.26586846,-5.4120521)">
    <path
       d="M 56.775709,7.7540071 V 17.270767 H 33.973563 V 91.909348 H 22.974881 V 17.270767 H 0.17273455 V 7.7540071 Z"
       id="path28000"
       style="font-size:153.942px;line-height:1.25;font-family:'Ubuntu Mono';-inkscape-font-specification:'Ubuntu Mono';stroke:#fefefe;stroke-width:0.877206;stroke-miterlimit:4;stroke-dasharray:none" />
    <path
       d="m 189.29591,70.020804 q 0,10.604389 -6.70651,17.130166 -6.57239,6.525774 -20.11954,6.525774 -7.77956,0 -12.87651,-2.039303 -5.09695,-2.175262 -8.18195,-5.438147 -2.95086,-3.398842 -4.29217,-7.477453 -1.20717,-4.078611 -1.20717,-8.021268 0,-7.205547 3.88978,-12.779649 3.88978,-5.574102 9.25499,-8.972944 -11.40107,-6.525778 -11.40107,-19.985195 0,-4.622426 1.74368,-8.83699 1.74371,-4.214566 4.96283,-7.3415 3.21913,-3.1269368 7.77956,-5.0302879 4.69456,-1.903352 10.46215,-1.903352 6.70652,0 11.40108,2.0393057 4.82869,2.0393051 7.77956,5.3021942 2.95086,3.126936 4.29216,7.069594 1.3413,3.806703 1.3413,7.477453 0,7.205546 -3.62151,12.50774 -3.62152,5.166242 -8.31608,8.293177 13.81542,6.661731 13.81542,21.480685 z m -42.65343,0.815722 q 0,2.175259 0.80479,4.622426 0.80478,2.311213 2.68261,4.350519 1.87781,2.039305 4.96281,3.398842 3.08501,1.223583 7.51129,1.223583 4.15804,0 7.10891,-1.087629 3.085,-1.223583 4.96282,-3.126935 2.01195,-2.039306 2.95087,-4.486473 0.93891,-2.447166 0.93891,-4.894333 0,-7.749361 -5.49934,-11.827972 -5.49934,-4.214565 -15.15672,-6.389824 -5.36521,2.990981 -8.31608,7.477453 -2.95087,4.486472 -2.95087,10.740343 z m 30.04518,-43.097324 q 0,-1.767398 -0.80477,-3.942657 -0.80479,-2.311214 -2.54848,-4.078612 -1.60956,-1.903352 -4.29217,-3.126934 -2.6826,-1.359538 -6.43826,-1.359538 -3.88978,0 -6.57238,1.223584 -2.54847,1.223583 -4.29216,3.126934 -1.7437,1.767399 -2.54848,4.078612 -0.67065,2.175259 -0.67065,4.350518 0,5.574102 3.88978,10.468435 4.0239,4.75838 13.14476,6.93364 5.09695,-2.990982 8.04782,-7.069593 3.08499,-4.078611 3.08499,-10.604389 z"
       id="path28002"
       style="font-size:153.942px;line-height:1.25;font-family:'Ubuntu Mono';-inkscape-font-specification:'Ubuntu Mono';stroke:#fefefe;stroke-width:0.877206;stroke-miterlimit:4;stroke-dasharray:none" />
    <path
       d="m 200.965,62.815257 q 2.28022,-5.438148 6.16999,-12.50774 4.0239,-7.069593 8.98673,-14.547047 4.96282,-7.613407 10.5963,-14.818953 5.63346,-7.3415 11.40107,-13.1875099 h 10.73042 V 61.183813 h 9.79151 v 9.244852 h -9.79151 V 91.909348 H 238.11909 V 70.428665 H 200.965 Z m 37.15409,-41.737786 q -3.62152,3.942657 -7.37717,8.701037 -3.62152,4.758379 -7.10891,10.060574 -3.48738,5.16624 -6.57238,10.604388 -2.95087,5.438149 -5.36521,10.740343 h 26.42367 z"
       id="path28004"
       style="font-size:153.942px;line-height:1.25;font-family:'Ubuntu Mono';-inkscape-font-specification:'Ubuntu Mono';stroke:#fefefe;stroke-width:0.877206;stroke-miterlimit:4;stroke-dasharray:none" />
    <path
       d="m 51.276368,126.29879 q 0,4.35051 -1.743694,8.42913 -1.609563,4.0786 -4.426299,8.02127 -2.682605,3.94266 -6.169992,7.74935 -3.487387,3.80671 -7.108904,7.47746 -2.011954,2.0393 -4.69456,4.89434 -2.682605,2.85502 -5.09695,5.846 -2.414345,2.99098 -4.023908,5.84601 -1.609563,2.85503 -1.609563,4.89434 h 38.227126 v 9.51676 H 4.330773 q -0.1341303,-0.67977 -0.1341303,-1.35954 0,-0.81572 0,-1.49549 0,-5.71006 1.8778238,-10.6044 1.8778237,-4.89433 4.8286895,-9.24484 2.950867,-4.35052 6.572384,-8.15722 3.755647,-3.94266 7.377164,-7.61342 2.950866,-2.99097 5.633472,-5.846 2.816736,-2.85502 4.828689,-5.71006 2.146085,-2.85503 3.353258,-5.84601 1.341302,-3.12693 1.341302,-6.38983 0,-3.67074 -1.207172,-6.25386 -1.073043,-2.58312 -3.084996,-4.21457 -1.877824,-1.7674 -4.4263,-2.58312 -2.548475,-0.81572 -5.49934,-0.81572 -3.487388,0 -6.438253,0.95167 -2.816736,0.95168 -5.096951,2.31122 -2.146084,1.35954 -3.755647,2.71908 -1.6095632,1.22358 -2.4143455,2.0393 l -5.4993411,-7.88532 q 1.0730422,-1.22358 3.2191265,-2.99098 2.1460843,-1.7674 5.0969501,-3.26289 3.084997,-1.63143 6.840645,-2.71907 3.755647,-1.08764 8.047816,-1.08764 13.010636,0 19.180628,6.11792 6.304123,5.98197 6.304123,17.26613 z"
       id="path28006"
       style="font-size:153.942px;line-height:1.25;font-family:'Ubuntu Mono';-inkscape-font-specification:'Ubuntu Mono';stroke:#fefefe;stroke-width:0.877206;stroke-miterlimit:4;stroke-dasharray:none" />
    <path
       d="m 160.59203,104.00238 q 7.37717,0 12.87651,1.90335 5.63348,1.90335 9.25499,5.43815 3.75564,3.39884 5.49934,8.15722 1.87782,4.75838 1.87782,10.60439 0,13.18751 -7.64542,20.39305 -7.64543,7.0696 -22.93627,7.0696 h -9.65739 v 31.40531 h -10.99867 v -82.93176 q 2.41433,-0.54382 5.23108,-0.95167 2.95086,-0.40787 5.76759,-0.67978 2.95087,-0.27191 5.63348,-0.27191 2.81673,-0.13595 5.09694,-0.13595 z m 0.80479,9.65271 q -3.48739,0 -6.70652,0.13595 -3.21912,0 -4.82869,0.27192 v 33.98842 h 9.12086 q 10.05977,0 14.88846,-4.07861 4.96282,-4.07861 4.96282,-13.45942 0,-16.85826 -17.43693,-16.85826 z"
       id="path28008"
       style="font-size:153.942px;line-height:1.25;font-family:'Ubuntu Mono';-inkscape-font-specification:'Ubuntu Mono';stroke:#fefefe;stroke-width:0.877206;stroke-miterlimit:4;stroke-dasharray:none" />
    <path
       d="m 224.30367,188.97345 v -31.26936 q -8.18195,-13.59536 -14.88846,-26.51097 -6.57239,-12.9156 -11.5352,-26.37502 h 12.33997 q 3.88978,11.42011 8.85261,21.88854 5.09695,10.3325 10.86455,21.34474 6.17,-11.55606 10.86455,-21.88854 4.82869,-10.46844 8.71847,-21.34474 h 12.07173 q -5.09696,13.32347 -11.66934,25.96716 -6.57239,12.64369 -14.62021,26.64693 v 31.54126 z"
       id="path28010"
       style="font-size:153.942px;line-height:1.25;font-family:'Ubuntu Mono';-inkscape-font-specification:'Ubuntu Mono';stroke:#fefefe;stroke-width:0.877206;stroke-miterlimit:4;stroke-dasharray:none" />
    <g
       style="fill:none;stroke:none;stroke-linecap:square;stroke-miterlimit:10"
       id="g9499"
       transform="matrix(0.13780849,0,0,0.13780849,72.181211,6.3035441)">
      <g
         clip-path="url(#p.0)"
         id="g284">
        <path
           fill="#000000"
           fill-opacity="0"
           d="M 0,0 H 355.11336 V 631.7192 H 0 Z"
           fill-rule="nonzero"
           id="path218"
           style="stroke-width:0.941284" />
        <path
           fill="#434343"
           d="m 14.539035,37.151123 v 0 c 0,-13.923937 10.000978,-25.211517 22.337811,-25.211517 H 317.92024 c 5.92434,0 11.60606,2.656205 15.79522,7.384282 4.18914,4.728077 6.54259,11.140726 6.54259,17.827236 V 590.57062 c 0,13.92389 -10.00099,25.21149 -22.33781,25.21149 H 36.876846 c -12.336831,0 -22.337811,-11.2876 -22.337811,-25.21149 z"
           fill-rule="nonzero"
           id="path220"
           style="stroke-width:0.941284" />
        <path
           fill="#000000"
           d="m 213.13644,258.34319 h 38.45195 v 21.83855 h -38.45195 z"
           fill-rule="nonzero"
           id="path244-7-5-1"
           style="fill:#808080;stroke-width:0.723164" />
        <path
           fill="#000000"
           d="m 270.3285,258.34319 h 38.45195 v 21.83855 H 270.3285 Z"
           fill-rule="nonzero"
           id="path244-7-5-1-2"
           style="fill:#808080;stroke-width:0.723164" />
        <path
           fill="#000000"
           d="m 155.94437,258.34319 h 38.45195 v 21.83855 h -38.45195 z"
           fill-rule="nonzero"
           id="path244-7-5-9"
           style="fill:#808080;stroke-width:0.723164" />
        <path
           stroke="#000000"
           stroke-width="3.76514"
           stroke-linejoin="round"
           stroke-linecap="butt"
           d="m 14.539035,37.151123 v 0 c 0,-13.923937 10.000978,-25.211517 22.337811,-25.211517 H 317.92024 c 5.92434,0 11.60606,2.656205 15.79522,7.384282 4.18914,4.728077 6.54259,11.140726 6.54259,17.827236 V 590.57062 c 0,13.92389 -10.00099,25.21149 -22.33781,25.21149 H 36.876846 c -12.336831,0 -22.337811,-11.2876 -22.337811,-25.21149 z"
           fill-rule="nonzero"
           id="path222" />
        <path
           fill="#cccccc"
           d="M 34.619316,39.19832 H 317.47969 V 239.35328 H 34.619316 Z"
           fill-rule="nonzero"
           id="path224"
           style="stroke-width:0.835476" />
        <path
           stroke="#000000"
           stroke-width="3.3419"
           stroke-linejoin="round"
           stroke-linecap="butt"
           d="M 34.619316,39.19832 H 317.47969 V 239.35328 H 34.619316 Z"
           fill-rule="nonzero"
           id="path226" />
        <path
           fill="#000000"
           d="m 41.56025,367.08536 h 38.451948 v 36.99921 H 41.56025 Z"
           fill-rule="nonzero"
           id="path228"
           style="stroke-width:0.941284" />
        <path
           fill="#000000"
           d="m 98.752316,367.08536 h 38.451944 v 36.99921 H 98.752316 Z"
           fill-rule="nonzero"
           id="path230"
           style="stroke-width:0.941284" />
        <path
           fill="#000000"
           d="m 155.94438,367.08536 h 38.45194 v 36.99921 h -38.45194 z"
           fill-rule="nonzero"
           id="path232"
           style="stroke-width:0.941284" />
        <path
           fill="#000000"
           d="m 213.13644,367.08536 h 38.45196 v 36.99921 h -38.45196 z"
           fill-rule="nonzero"
           id="path234"
           style="stroke-width:0.941284" />
        <path
           fill="#000000"
           d="m 270.3285,367.08536 h 38.45195 v 36.99921 H 270.3285 Z"
           fill-rule="nonzero"
           id="path236"
           style="stroke-width:0.941284" />
        <path
           fill="#f1c232"
           d="m 270.3285,551.66865 h 38.45195 v 36.99918 H 270.3285 Z"
           fill-rule="nonzero"
           id="path238"
           style="stroke-width:0.941284" />
        <path
           fill="#000000"
           d="m 155.94438,311.5441 h 38.45194 v 36.99918 h -38.45194 z"
           fill-rule="nonzero"
           id="path240"
           style="stroke-width:0.941284" />
        <path
           fill="#000000"
           d="M 40.721571,428.6111 H 79.17352 v 36.99918 H 40.721571 Z"
           fill-rule="nonzero"
           id="path242"
           style="stroke-width:0.941284" />
        <path
           fill="#000000"
           d="m 97.913631,428.6111 h 38.451949 v 36.99918 H 97.913631 Z"
           fill-rule="nonzero"
           id="path244"
           style="fill:#808080;stroke-width:0.941284" />
        <path
           fill="#000000"
           d="m 41.560251,258.34319 h 38.451946 v 21.83855 H 41.560251 Z"
           fill-rule="nonzero"
           id="path244-7"
           style="fill:#808080;stroke-width:0.723164" />
        <path
           fill="#000000"
           d="m 98.752315,258.34319 h 38.451945 v 21.83855 H 98.752315 Z"
           fill-rule="nonzero"
           id="path244-7-5"
           style="fill:#808080;stroke-width:0.723164" />
        <path
           fill="#000000"
           d="m 155.10571,428.6111 h 38.45194 v 36.99918 h -38.45194 z"
           fill-rule="nonzero"
           id="path246"
           style="fill:#808080;stroke-width:0.941284" />
        <path
           fill="#000000"
           d="m 212.29776,428.6111 h 38.45194 v 36.99918 h -38.45194 z"
           fill-rule="nonzero"
           id="path248"
           style="fill:#808080;stroke-width:0.941284" />
        <path
           fill="#000000"
           d="m 269.48984,428.6111 h 38.45195 v 36.99918 h -38.45195 z"
           fill-rule="nonzero"
           id="path250"
           style="stroke-width:0.941284" />
        <path
           fill="#000000"
           d="m 41.56025,493.26868 h 38.451948 v 36.99921 H 41.56025 Z"
           fill-rule="nonzero"
           id="path252"
           style="stroke-width:0.941284" />
        <path
           fill="#000000"
           d="m 98.752316,493.26868 h 38.451944 v 36.99921 H 98.752316 Z"
           fill-rule="nonzero"
           id="path254"
           style="fill:#808080;stroke-width:0.941284" />
        <path
           fill="#000000"
           d="m 155.94438,493.26868 h 38.45194 v 36.99921 h -38.45194 z"
           fill-rule="nonzero"
           id="path256"
           style="fill:#808080;stroke-width:0.941284" />
        <path
           fill="#000000"
           d="m 155.94438,551.66864 h 38.45194 v 36.99921 h -38.45194 z"
           fill-rule="nonzero"
           id="path256-3"
           style="fill:#808080;stroke-width:0.941284" />
        <path
           fill="#000000"
           d="m 98.752316,551.66864 h 38.451944 v 36.99921 H 98.752316 Z"
           fill-rule="nonzero"
           id="path256-6"
           style="fill:#808080;stroke-width:0.941284" />
        <path
           fill="#000000"
           d="m 213.13644,493.26868 h 38.45196 v 36.99921 h -38.45196 z"
           fill-rule="nonzero"
           id="path258"
           style="fill:#808080;stroke-width:0.941284" />
        <path
           fill="#000000"
           d="m 270.3285,493.26868 h 38.45195 v 36.99921 H 270.3285 Z"
           fill-rule="nonzero"
           id="path260"
           style="stroke-width:0.941284" />
        <path
           fill="#6aa84f"
           d="m 98.752316,312.78164 h 38.451944 v 36.99921 H 98.752316 Z"
           fill-rule="nonzero"
           id="path262"
           style="stroke-width:0.941284" />
        <path
           fill="#3d85c6"
           d="m 41.56025,312.78164 h 38.451948 v 36.9992 H 41.56025 Z"
           fill-rule="nonzero"
           id="path264"
           style="stroke-width:0.941284" />
        <path
           fill="#000000"
           d="m 41.560247,551.66864 h 38.451955 v 36.99921 H 41.560247 Z"
           fill-rule="nonzero"
           id="path266"
           style="stroke-width:0.941284" />
        <path
           fill="#000000"
           d="m 212.30355,551.66864 h 38.45194 v 36.99921 h -38.45194 z"
           fill-rule="nonzero"
           id="path268"
           style="fill:#808080;stroke-width:0.941284" />
        <path
           fill="#000000"
           d="M 213.13644,311.54409 H 251.5884 V 348.5433 H 213.13644 Z"
           fill-rule="nonzero"
           id="path270"
           style="stroke-width:0.941284" />
        <path
           fill="#000000"
           fill-opacity="0"
           d="M 34.666462,248.34319 H 317.43405"
           fill-rule="nonzero"
           id="path272"
           style="stroke-width:0.941284" />
        <path
           fill="#000000"
           fill-opacity="0"
           d="m 101.71263,38.66665 0.8329,253.89606"
           fill-rule="nonzero"
           id="path276"
           style="stroke-width:0.941284" />
        <path
           fill="#000000"
           fill-opacity="0"
           d="m 34.468722,153.26633 c 2.380546,6.4724 7.36946,26.28407 14.28328,38.83443 6.913818,12.55035 16.399324,27.48398 27.199632,36.46769 10.8003,8.98372 21.666253,15.18766 37.602206,17.4346 15.93596,2.24697 38.4633,1.85871 58.01352,-3.95283 19.55021,-5.81152 44.5894,-19.42134 59.28778,-30.91637 14.69838,-11.49502 21.91919,-21.93472 28.90251,-38.05378 6.9833,-16.11905 10.43154,-41.48412 12.99743,-58.66057 2.56588,-17.176458 1.99827,-31.845731 2.39791,-44.398145 0.39966,-12.552425 0,-25.763649 0,-30.916378"
           fill-rule="nonzero"
           id="path280"
           style="stroke-width:0.941284" />
      </g>
    </g>
    <g
       id="g1894"
       transform="matrix(0.75320028,0,0,0.75320028,21.218471,53.75876)">
      <path
         style="color:#000000;display:inline;overflow:visible;visibility:visible;opacity:1;fill:url(#linearGradient9521);fill-opacity:1;fill-rule:nonzero;stroke:none;stroke-width:1;stroke-linecap:butt;stroke-linejoin:miter;stroke-miterlimit:4;stroke-dasharray:none;stroke-dashoffset:0;stroke-opacity:1;marker:none;marker-start:none;marker-mid:none;marker-end:none"
         d="M 99.75,67.46875 C 71.718268,67.468752 73.46875,79.625 73.46875,79.625 L 73.5,92.21875 h 26.75 V 96 H 62.875 c 0,0 -17.9375,-2.034276 -17.9375,26.25 -2e-6,28.28427 15.65625,27.28125 15.65625,27.28125 h 9.34375 v -13.125 c 0,0 -0.503652,-15.65625 15.40625,-15.65625 15.9099,0 26.53125,0 26.53125,0 0,0 14.90625,0.24096 14.90625,-14.40625 0,-14.647206 0,-24.21875 0,-24.21875 0,-2e-6 2.26318,-14.65625 -27.03125,-14.65625 z M 85,75.9375 c 2.661429,-2e-6 4.8125,2.151071 4.8125,4.8125 2e-6,2.661429 -2.151071,4.8125 -4.8125,4.8125 -2.661429,2e-6 -4.8125,-2.151071 -4.8125,-4.8125 -2e-6,-2.661429 2.151071,-4.8125 4.8125,-4.8125 z"
         id="path8615" />
      <path
         id="path8620"
         d="m 100.5461,177.31485 c 28.03174,0 26.28125,-12.15625 26.28125,-12.15625 l -0.0312,-12.59375 h -26.75 v -3.78125 h 37.375 c 0,0 17.9375,2.03427 17.9375,-26.25001 10e-6,-28.284267 -15.65625,-27.281247 -15.65625,-27.281247 h -9.34375 v 13.124997 c 0,0 0.50366,15.65625 -15.40625,15.65625 -15.909902,0 -26.531252,0 -26.531252,0 0,0 -14.90625,-0.24096 -14.90625,14.40626 0,14.6472 0,24.21875 0,24.21875 0,0 -2.26318,14.65625 27.031252,14.65625 z m 14.75,-8.46875 c -2.66143,0 -4.8125,-2.15107 -4.8125,-4.8125 0,-2.66143 2.15107,-4.8125 4.8125,-4.8125 2.66143,0 4.8125,2.15107 4.8125,4.8125 1e-5,2.66143 -2.15107,4.8125 -4.8125,4.8125 z"
         style="color:#000000;display:inline;overflow:visible;visibility:visible;opacity:1;fill:url(#linearGradient11307);fill-opacity:1;fill-rule:nonzero;stroke:none;stroke-width:1;stroke-linecap:butt;stroke-linejoin:miter;stroke-miterlimit:4;stroke-dasharray:none;stroke-dashoffset:0;stroke-opacity:1;marker:none;marker-start:none;marker-mid:none;marker-end:none" />
    </g>
  </g>
</svg>
